<svg xmlns="http://www.w3.org/2000/svg" viewBox="0 0 605.385 279.15"><defs><style>.a{fill:#f2f2f2;}.b{fill:silver;}.c{opacity:0.1;}.d{fill:#333;}.e{fill:#439ce2;}.f{fill:#a0616a;}.g{fill:#d0cde1;}.h{fill:#999;}</style></defs><g transform="translate(-0.001 0)"><path class="a" d="M598.452,261.654a108.239,108.239,0,0,0-7.586-95.242L417.939,190.356l165.719-34.537a108.064,108.064,0,0,0-192.684,80.612Z" transform="translate(-313.365 -95.93)"/><path class="a" d="M409.909,519.317a108.087,108.087,0,0,0,198.507,7.343Z" transform="translate(-326.079 -354.631)"/><path class="b" d="M458.175,380.513c0,42.463-62.607,76.883-139.833,76.883-41.488,0-78.756-9.932-104.362-25.712-16.708-10.292-28.454-23.077-33.166-37.2a43.789,43.789,0,0,1-2.305-13.966c0-42.458,115.879-233.983,139.833-76.878S458.175,338.055,458.175,380.513Z" transform="translate(-178.508 -178.246)"/><path class="c" d="M391.892,650.041c0,15.678-49.514,28.39-110.6,28.39-23.526,0-45.335-1.886-63.26-5.1-16.708-10.292-28.454-23.077-33.166-37.2,18.962-8.64,55.039-14.475,96.425-14.475C342.378,621.651,391.892,634.363,391.892,650.041Z" transform="translate(-182.565 -419.893)"/><path class="d" d="M416.9,226.248c-8.765-14.81-26.105-15.5-26.105-15.5s-16.9-2.161-27.737,20.395c-10.1,21.024-24.047,41.322-2.245,46.244l3.938-12.257,2.439,13.17a85.3,85.3,0,0,0,9.328.159c23.349-.754,45.584.221,44.869-8.158C420.439,259.163,425.338,240.5,416.9,226.248Z" transform="translate(-287.408 -157.811)"/><path class="e" d="M371.47,597.949a34.57,34.57,0,0,1-1.118,4.813c-.548,1.542-1.4,2.969-1.9,4.527-1.6,4.967.617,10.5,4.157,14.338A23.4,23.4,0,0,0,384.02,628.4a46.541,46.541,0,0,0,9.8,1.03c9.112.309,18.457.585,27.091-2.343a47.067,47.067,0,0,0,7.871-3.576,5.892,5.892,0,0,0,2.042-1.608,5.62,5.62,0,0,0,.737-3.3c-.019-3.863-.8-7.706-.617-11.564a45.832,45.832,0,0,0,.306-6.4,11.812,11.812,0,0,0-9.027-10.175,24.518,24.518,0,0,0-7.483,0,190.813,190.813,0,0,1-19.475.871c-6.644-.042-13.246-1.057-19.857-1.162-1.955-.031-1.915.571-2.538,2.463A46.087,46.087,0,0,0,371.47,597.949Z" transform="translate(-299.306 -399.815)"/><path class="f" d="M415.774,334.354a11.6,11.6,0,0,1-1.669,4.778c-1.156,1.581-3.04,2.484-4.284,4-1.872,2.277-1.979,5.481-1.987,8.428-.007,2.715.048,5.611,1.562,7.865a13.746,13.746,0,0,0,3.939,3.473c5.678,3.827,11.814,7.722,18.66,7.848,2.837.052,5.878-.68,7.745-2.817a11.628,11.628,0,0,0,1.875-3.345,44.42,44.42,0,0,0,3.145-13.523,15.879,15.879,0,0,0-.6-6.5c-.832-2.319-2.513-4.227-3.625-6.425a14.3,14.3,0,0,1-1.377-8.464.913.913,0,0,0-.048-.613.893.893,0,0,0-.736-.3l-13.575-.977a29.547,29.547,0,0,1-3.769-.431c-.732-.149-2.665-1.188-3.362-.912C416.378,326.95,416.039,332.967,415.774,334.354Z" transform="translate(-324.756 -231.596)"/><path class="c" d="M415.774,335.524A11.6,11.6,0,0,1,414.1,340.3c-1.156,1.581-3.04,2.484-4.284,4-1.872,2.277-1.979,5.481-1.987,8.428-.007,2.715.048,5.611,1.562,7.865a13.747,13.747,0,0,0,3.939,3.473c5.678,3.827,11.814,7.722,18.66,7.848,2.837.052,5.878-.68,7.745-2.817a11.629,11.629,0,0,0,1.875-3.345,44.421,44.421,0,0,0,3.145-13.523,15.879,15.879,0,0,0-.6-6.5c-.832-2.319-2.513-4.227-3.625-6.425a14.3,14.3,0,0,1-1.377-8.464.913.913,0,0,0-.048-.613.893.893,0,0,0-.736-.3l-13.575-.977a29.536,29.536,0,0,1-3.769-.431c-.732-.149-2.665-1.188-3.362-.912C416.378,328.12,416.039,334.137,415.774,335.524Z" transform="translate(-324.756 -232.343)"/><circle class="f" cx="19.916" cy="19.916" r="19.916" transform="translate(84.084 64.747)"/><path class="g" d="M424.794,398.145a12.212,12.212,0,0,0,3.5,2.8,10.992,10.992,0,0,0,4.37.832c3.59.1,7.482-.557,9.979-3.138,3.219-3.327,3.113-8.693,5.636-12.574a2.8,2.8,0,0,1,.813-.889,2.636,2.636,0,0,1,1.383-.318c3.187-.03,5.963,2.037,8.468,4.007a11.154,11.154,0,0,1,2.981,3.036,10.292,10.292,0,0,1,1.005,3.078,135.245,135.245,0,0,1,2.045,18.457c.221,3.415.442,6.833.425,10.255-.054,11.274-2.674,22.359-5.28,33.327-.336,1.413-.8,2.993-2.08,3.67a5.13,5.13,0,0,1-1.815.443A222.155,222.155,0,0,1,433.766,463q-4.4.068-8.793-.213a4.735,4.735,0,0,1-1.481-.258,4.177,4.177,0,0,1-1.615-1.371c-4.064-5.122-4.3-12.2-4.278-18.741q.1-23.978,1.713-47.918c.089-1.317.109-2.917-.841-3.953A49.459,49.459,0,0,0,424.794,398.145Z" transform="translate(-330.982 -268.876)"/><path class="h" d="M371.7,354.939c-.673,1.218-5.632,4.241-6.589,5.25-5.349,5.638-15.112,5.427-20,11.466a18.817,18.817,0,0,0-3.273,7.449c-.93,3.754-1.427,7.848.131,11.387,1.5,3.406,4.656,5.76,6.8,8.8,2.353,3.34,3.411,7.4,4.425,11.354.749,2.923,1.5,5.917,1.212,8.92-.331,3.414-1.984,6.54-2.959,9.829s-1.144,7.205,1.112,9.79c1.657,1.9,4.256,2.651,6.74,3.075a77.433,77.433,0,0,0,9.607.836c2.84.125,5.97.15,8.153-1.671a8.2,8.2,0,0,0,2.568-6.008,38.781,38.781,0,0,0-.661-6.686c-.3-2.305-.419-4.631-.516-6.954q-.655-15.635-.179-31.29a26.628,26.628,0,0,0-.317-6.493c-.609-2.792-2.118-5.287-3.377-7.852a29.714,29.714,0,0,1-3.295-15.7C371.662,354.862,374.1,350.606,371.7,354.939Z" transform="translate(-282.111 -248.666)"/><path class="h" d="M490.9,351.943c1.025,1.053,4.506,1.4,5.809,2.078a20.349,20.349,0,0,0,3.819,1.322,49.58,49.58,0,0,1,13.415,6.157,8.142,8.142,0,0,1,2.243,1.938,8.881,8.881,0,0,1,1.241,3.5,29.824,29.824,0,0,1-1.068,19.581l-3.818,12.208c-2.85,9.112-5.719,18.314-6.52,27.827a65.457,65.457,0,0,0,.587,15.805,1.874,1.874,0,0,1-.193,1.531,1.508,1.508,0,0,1-.935.43c-1.843.288-3.626-.652-5.3-1.483a58.651,58.651,0,0,0-16.168-5.29,37.587,37.587,0,0,0,5.022-10.352,62.668,62.668,0,0,0,1.517-7.119l1.776-10.274a100.938,100.938,0,0,0,1.524-11.361,14.224,14.224,0,0,0-.247-4.28,20.76,20.76,0,0,0-1.622-3.859,32.977,32.977,0,0,1-3.149-19.7c.5-2.914,1.484-5.831,1.075-8.759-.393-2.816.015-5-.707-7.79C486.237,342.62,488.971,349.962,490.9,351.943Z" transform="translate(-373.339 -245.246)"/><path class="h" d="M343.975,416.485c-1.335,2.769-3.566,5.129-4.325,8.108a17.716,17.716,0,0,0-.377,4.238,20.13,20.13,0,0,0,.629,6.372c.424,1.314,1.113,2.525,1.61,3.813a13.826,13.826,0,0,1,.906,5.649c-.134,2.668-1.04,5.257-1.111,7.927-.111,4.2,1.831,8.146,3.726,11.895a8.744,8.744,0,0,1,12.71-4.161,2.606,2.606,0,0,0,.573-1.9q.21-7.307.405-14.615c.205-7.534.4-15.169-1.333-22.5a21.231,21.231,0,0,0-4.232-9.18c-1.175-1.353-5.165-4.915-7.095-3.4-.868.681-.665,2.536-.8,3.476A14.746,14.746,0,0,1,343.975,416.485Z" transform="translate(-281.027 -283.868)"/><path class="h" d="M539.634,396.286a20.384,20.384,0,0,1,.682,6.13q.038,6.317-.167,12.632a23.548,23.548,0,0,1-.821,6.4c-.431,1.355-1.1,2.626-1.541,3.977-1.334,4.048-.605,8.438-.491,12.7a14.427,14.427,0,0,1-.349,4.108c-.7,2.641-2.6,4.775-3.916,7.169-1.254,2.273-2.011,4.821-3.508,6.941s-4.091,3.8-6.6,3.15c-1.9-.493-3.257-2.179-4.193-3.909a19.171,19.171,0,0,1-1.982-12.436c.94-5.171,3.977-9.758,5.073-14.9,1.5-7.059-.782-14.343-.714-21.56a10.419,10.419,0,0,1,.454-3.342,13.986,13.986,0,0,1,2.949-4.287,54.142,54.142,0,0,0,3.963-5.2c.816-1.217,1.925-4.348,3.372-4.608C535.07,388.664,538.832,393.79,539.634,396.286Z" transform="translate(-394.02 -271.65)"/><path class="e" d="M273.669,601.937a19.656,19.656,0,0,0-5.468-.581,13.648,13.648,0,0,0-12.671,16.089,22.924,22.924,0,0,0,2.167,5.921c1.45,2.943,3.189,5.879,5.874,7.765a22.876,22.876,0,0,0,5.184,2.468l14.14,5.327c2.08.784,4.161,1.567,6.261,2.294a122.468,122.468,0,0,0,32.7,6.5,35.414,35.414,0,0,0,10.154-.515,3.305,3.305,0,0,0,2.08-1.123,3.562,3.562,0,0,0,.465-1.535l.87-6.091a5.1,5.1,0,0,0-.074-2.568,4.918,4.918,0,0,0-2.35-2.215c-9.3-5.339-20.15-8.284-27.974-15.612-1.842-1.725-3.383-4.459-5.621-5.631-2.538-1.329-5.527-2.087-8.15-3.312C285.523,606.442,279.885,603.366,273.669,601.937Z" transform="translate(-227.484 -406.942)"/><path class="c" d="M333.816,623.185c5,1.566,26.1,12.416,29.715,16.2-.485.175-16.933-9.043-17.427-9.191a99.361,99.361,0,0,1-13.258-4.672c-.857-.4-5.568-2.26-5.355-3.341C327.732,620.963,332.929,622.906,333.816,623.185Z" transform="translate(-273.514 -419.978)"/><path class="f" d="M481,715.322a1.174,1.174,0,0,0,.792-.233,1.224,1.224,0,0,0,.248-.912q-.012-4.149-.023-8.3a25.507,25.507,0,0,0-7.675-1.852l-12.224-1.634c.281.037-1.911,5.265-1.575,5.963.592,1.23,5.12,2.32,6.4,2.9C471.377,713.276,475.993,715.5,481,715.322Z" transform="translate(-358.344 -471.385)"/><path class="f" d="M397.94,701.443c-2.308.368-4.884.693-6.379,2.489-1.9,2.278-1.089,5.675-.184,8.5a2.755,2.755,0,0,0,3.214,2.3c2.1.133,4.345.238,6.184-.795a27.105,27.105,0,0,0,2.4-1.786,15.4,15.4,0,0,1,4.417-2.019,44.658,44.658,0,0,1,8.866-1.827,13.787,13.787,0,0,0,3.493-.616,3.87,3.87,0,0,0,2.46-2.388c.426-1.508-.45-3.045-1.291-4.368a17.426,17.426,0,0,0-3.718-4.595c-2.278-1.769-3.4-.411-5.7.721A48.352,48.352,0,0,1,397.94,701.443Z" transform="translate(-313.642 -466.978)"/><path class="e" d="M345.409,708.188l-14.655-4.332A19.4,19.4,0,0,0,325.3,702.8a6.548,6.548,0,0,0-5.008,2.026,9.756,9.756,0,0,0-1.745,4.886l-.606,3.7a18.579,18.579,0,0,0-.339,5.68,6.28,6.28,0,0,0,2.911,4.68c2.028,1.106,4.514.566,6.777.1a73.787,73.787,0,0,1,13.888-1.489,11.149,11.149,0,0,0,5.144-.821,6.423,6.423,0,0,0,3.134-5.118C349.744,713.286,348.691,709.158,345.409,708.188Z" transform="translate(-267.143 -471.644)"/><path class="e" d="M522.039,702.08c1.9-.333,3.577-1.413,5.4-2.05a24,24,0,0,1,8.054-.887,5.171,5.171,0,0,1,2.888.578c1.2.8,1.5,2.389,1.706,3.812l1.227,8.58a13.466,13.466,0,0,1,.1,4.861,4.573,4.573,0,0,1-3.022,3.533c-1.916.5-3.795-.726-5.6-1.53-4.522-2.01-9.78-1.5-14.5-3a3.248,3.248,0,0,1-2.169-1.551,3.529,3.529,0,0,1-.169-1.483c.081-2.758-.5-6.524.329-9.16C517.027,701.414,519.919,702.08,522.039,702.08Z" transform="translate(-393.627 -469.311)"/><path class="e" d="M511.049,592.1a25.449,25.449,0,0,1,8.965-.612,11.25,11.25,0,0,1,6.616,2.59c2.13,2.019,2.814,5.142,2.871,8.076a25.231,25.231,0,0,1-5.484,16.113,14.625,14.625,0,0,1-3.135,3.018,20.639,20.639,0,0,1-4.079,1.966l-31.665,12.49c-8.33,3.286-16.69,6.581-25.379,8.747a1.978,1.978,0,0,1-2.662-.965,65.6,65.6,0,0,1-6.94-12.7.856.856,0,0,1,.378-1.349l22.4-12.868a22.647,22.647,0,0,0,4.559-3.141,11.318,11.318,0,0,0,2.34-3.258c.464-.97.508-3.258,1.1-3.975.581-.7,2.567-.758,3.484-1.034a31.611,31.611,0,0,0,3.793-1.434c5.01-2.241,9.471-5.5,14.274-8.122A36.625,36.625,0,0,1,511.049,592.1Z" transform="translate(-351.624 -400.561)"/><path class="c" d="M520.25,615.658c-3.848,2.89-8.83,5.547-12.644,8.513-1.3,1.012-23,13.211-23.306,14.831,3.558.6,26.222-15.256,29.465-16.838a52.373,52.373,0,0,0,8.966-6.028c.726-.564,3.8-2.261,1.718-2.892C523.276,612.889,521.117,615.081,520.25,615.658Z" transform="translate(-373.521 -414.507)"/><path class="d" d="M441.235,360.015H407.458a5.174,5.174,0,0,0-5.174,5.174v1.895h-.367v4.237h.367v2.966h-.367v2.542h.367V408.1a5.174,5.174,0,0,0,5.174,5.174h33.777a5.174,5.174,0,0,0,5.174-5.174V365.189a5.174,5.174,0,0,0-5.174-5.174Z" transform="translate(-320.982 -253.039)"/><path class="d" d="M266.339,169.177,249.207,160.2l-23.658,3.671-4.895,21.618,12.184-.469,3.4-7.942v7.812l5.622-.216,3.263-12.645,2.039,13.46,19.987-.408Z" transform="translate(-140.718 -102.167)"/><path class="f" d="M358.657,488.67a8.9,8.9,0,0,0,3.2,3.181,6.254,6.254,0,0,0,5.5-.147,9.676,9.676,0,0,0,3.967-3.977c1.862-3.288,2.247-7.222,2.015-10.993s-1.038-7.485-1.394-11.246c-.259-2.734-.28-5.485-.3-8.232a2.737,2.737,0,0,1,.346-1.665,3.268,3.268,0,0,1,1.837-.917c3.758-1.116,6.252-4.639,8.04-8.127,1.194-2.329,2.232-4.875,2-7.483s-2.1-5.234-4.708-5.5c-2.147-.219-4.129,1.144-5.678,2.647a24.346,24.346,0,0,0-7.128,14.246c-.34,2.651-.243,5.374-.964,7.948-1.54,5.5-6.357,8.865-8.757,13.809C353.983,477.663,355.443,483.849,358.657,488.67Z" transform="translate(-291.226 -299.928)"/><path class="f" d="M520.83,438.826a10.385,10.385,0,0,1-5.824,5.6,8.044,8.044,0,0,1-5.063.31,5.614,5.614,0,0,1-3.709-3.317,8.935,8.935,0,0,1-.418-2.492,25.677,25.677,0,0,1,1.2-10.986c.519-1.335,1.219-2.6,1.629-3.973a19.928,19.928,0,0,0,.613-4.849L509.7,409a6.582,6.582,0,0,0-.15-2.192c-.441-1.463-1.809-2.414-3.063-3.286-3.03-2.107-6.024-4.566-7.492-7.952a5.577,5.577,0,0,1-.518-3.294c.414-2.008,2.44-3.308,4.443-3.746a9.938,9.938,0,0,1,11.915,8.009c.2,1.141.2,2.307.311,3.459.246,2.444,1.022,4.8,1.507,7.209,1.2,5.932.576,12.064,1.759,18C519.4,430.164,523.127,433.4,520.83,438.826Z" transform="translate(-382.511 -271.079)"/><circle class="g" cx="4.237" cy="4.237" r="4.237" transform="translate(99.579 121.249)"/><path class="h" d="M918.866,423.632a22.7,22.7,0,1,0,22.7,22.7A22.7,22.7,0,0,0,918.866,423.632Zm11.219,16.943c.012.245.018.5.018.747,0,7.659-5.823,16.489-16.483,16.489a16.178,16.178,0,0,1-8.86-2.619,11.748,11.748,0,0,0,1.381.084,11.606,11.606,0,0,0,7.192-2.481,5.8,5.8,0,0,1-5.411-4.024,5.461,5.461,0,0,0,1.088.108,5.828,5.828,0,0,0,1.523-.2A5.793,5.793,0,0,1,905.89,443v-.072a5.654,5.654,0,0,0,2.631.723,5.8,5.8,0,0,1-1.8-7.736,16.4,16.4,0,0,0,11.933,6.056,5.67,5.67,0,0,1-.149-1.321,5.787,5.787,0,0,1,10.014-3.958,11.5,11.5,0,0,0,3.677-1.405,5.808,5.808,0,0,1-2.547,3.2,11.7,11.7,0,0,0,3.324-.915,11.781,11.781,0,0,1-2.888,3Z" transform="translate(-636.181 -293.609)"/><circle class="h" cx="4.034" cy="4.034" r="4.034" transform="translate(271.352 62.846)"/><path class="h" d="M925.969,221.5H915.885a5.057,5.057,0,0,0-5.042,5.042v10.085a5.057,5.057,0,0,0,5.042,5.042h10.084a5.057,5.057,0,0,0,5.042-5.042V226.539a5.057,5.057,0,0,0-5.042-5.042Zm-5.042,16.135a6.051,6.051,0,1,1,6.051-6.051,6.051,6.051,0,0,1-6.051,6.051Zm6.555-11.093a1.509,1.509,0,1,1,1.071-.442,1.513,1.513,0,0,1-1.071.442Z" transform="translate(-645.541 -164.701)"/><path class="h" d="M895.836,183.859a23.932,23.932,0,1,0,23.932,23.932A23.932,23.932,0,0,0,895.836,183.859Zm12.36,28.762a7.08,7.08,0,0,1-7.059,7.059H891.053a7.08,7.08,0,0,1-7.059-7.059V202.536a7.08,7.08,0,0,1,7.059-7.059h10.084a7.08,7.08,0,0,1,7.059,7.059Z" transform="translate(-620.709 -140.698)"/><path class="h" d="M628.547,64.718a23.547,23.547,0,1,0,23.547,23.547A23.547,23.547,0,0,0,628.547,64.718Zm7.425,14.248h-3.014c-2.058,0-2.451.973-2.451,2.408v3.048h4.9l-.64,4.782h-4.261v12.979h-5.465V89.2h-3.919V84.423h3.919V80.888c0-4.235,2.938-6.541,6.72-6.541,1.81,0,3.757.137,4.21.2Z" transform="translate(-450.495 -64.718)"/></g></svg>
