<svg xmlns="http://www.w3.org/2000/svg" viewBox="0 0 19.678 14.955"><g transform="translate(0 -24.08)"><path d="M18.5,25.654H10.232v-.394A1.183,1.183,0,0,0,9.052,24.08H1.181A1.183,1.183,0,0,0,0,25.261V37.854a1.183,1.183,0,0,0,1.181,1.181H3.542V37.854H5.116v1.181h9.445V37.854h1.574v1.181H18.5a1.183,1.183,0,0,0,1.181-1.181V26.835A1.183,1.183,0,0,0,18.5,25.654ZM2.361,34.706c.081-1.408,1.962-1.2,2.223-1.934.022-.251.014-.424.014-.653a1.283,1.283,0,0,1-.344-.758c-.086-.006-.22-.094-.26-.437a.325.325,0,0,1,.114-.32c-.289-1.159-.131-2.171,1.191-2.2a.741.741,0,0,1,.683.274c.965.138.675,1.487.537,1.922a.327.327,0,0,1,.114.32c-.038.344-.174.43-.26.438a1.3,1.3,0,0,1-.337.758c0,.228-.008.4.014.652.261.73,2.134.526,2.215,1.934Zm14.955,0H10.232v-.787h7.084Zm0-1.968H10.232v-.787h7.084Zm0-1.968H10.232v-.787h7.084Z" fill="#007bff"/></g></svg>
