<svg xmlns="http://www.w3.org/2000/svg" viewBox="0 0 26.479 24.588"><g transform="translate(-10.75 -10.75)"><path d="M13.587,10.75a2.851,2.851,0,0,0-2.837,2.837V35.338H37.229v-15.6a1.433,1.433,0,0,0-1.419-1.419H29.664V13.587a2.851,2.851,0,0,0-2.837-2.837H13.587Zm0,1.891H26.827a.933.933,0,0,1,.946.946V33.446H22.1V29.664H18.315v3.783H12.641V13.587A.933.933,0,0,1,13.587,12.641Zm.946,1.891v1.891h1.891V14.533Zm3.783,0v1.891H22.1V14.533Zm5.674,0v1.891h1.891V14.533Zm-9.457,3.783v1.891h1.891V18.315Zm3.783,0v1.891H22.1V18.315Zm5.674,0v1.891h1.891V18.315Zm5.674,1.891h5.674V33.446H29.664ZM14.533,22.1v1.891h1.891V22.1Zm3.783,0v1.891H22.1V22.1Zm5.674,0v1.891h1.891V22.1Zm7.565,0v1.891h1.891V22.1ZM14.533,25.881v1.891h1.891V25.881Zm3.783,0v1.891H22.1V25.881Zm5.674,0v1.891h1.891V25.881Zm7.565,0v1.891h1.891V25.881ZM14.533,29.664v1.891h1.891V29.664Zm9.457,0v1.891h1.891V29.664Zm7.565,0v1.891h1.891V29.664Z"/></g></svg>
