<svg xmlns="http://www.w3.org/2000/svg" viewBox="0 0 16.403 22.968"><path d="M40.37,19.809c.031,0,.059-.009.09-.009A3.27,3.27,0,0,1,43.7,22.651l3.68-4.356a8.468,8.468,0,0,0-3.172-3Zm.09,6.554a3.271,3.271,0,0,1-3.237-2.848L33.878,27.45c.457.745.964,1.468,1.47,2.18.382.538.755,1.067,1.1,1.6l4.121-4.878c-.038,0-.073.012-.112.012Zm-2.867,6.9a7.662,7.662,0,0,1,.618,2.065,2.267,2.267,0,0,0,4.493.019c.282-2.08,1.538-3.848,2.867-5.718,1.893-2.665,3.841-5.423,2.8-9.119ZM38.1,19.1l3.912-4.606a7.553,7.553,0,0,0-1.067-.15,8.148,8.148,0,0,0-5.82,1.969Zm-4.433-1.154a8.227,8.227,0,0,0-1.412,4.588,7.746,7.746,0,0,0,.548,2.8l3.879-4.566Z" transform="translate(-32.257 -14.331)"/></svg>
