<svg xmlns="http://www.w3.org/2000/svg" width="812" height="400" viewBox="0 0 812 400"><defs><style>.a,.c{fill:silver;}.a,.b{opacity:0.12;}.b{fill:none;stroke:#999;stroke-miterlimit:10;stroke-width:2px;}</style></defs><g transform="translate(-68.095 -200.711)"><path class="a" d="M250.761,256.462a27.821,27.821,0,0,0-1.59-6.555,2.932,2.932,0,0,0-1.4-1.858,2.688,2.688,0,0,0-1.39-.017l-7.137,1.176a2.629,2.629,0,0,0-1.628.681c-.93,1.053-.014,2.748-.043,4.2a3.859,3.859,0,0,1-2.841,3.4,9.991,9.991,0,0,1-4.514-.06l-9.98-1.67a16.437,16.437,0,0,0,7.55-5.425c1.313-1.675,2.012-4.8.114-5.6a4.341,4.341,0,0,0-1.733-.15c-4.522.038-8.08-4.027-12.313-5.739a13.049,13.049,0,0,0-15.322,4.918l5.316.276a2.234,2.234,0,0,1,1.416.407c1.165,1.031-.283,3.011-.119,4.625.213,2.1,2.8,2.545,4.748,2.757s4.422,1.917,3.484,3.77c-9.8,3.634-19.767-7.1-30.056-5.781-2.6.335-5.063,1.436-7.606,2.129-15.531,4.231-31.588-7.058-47.453-4.667a56.851,56.851,0,0,0-10.359,2.942c-2.159.763-4.412,1.588-5.981,3.359s-2.166,4.8-.68,6.65a32.39,32.39,0,0,1-12.181-1.247,7.461,7.461,0,0,1,3.508,6.476,68.531,68.531,0,0,0-18.515,6.079,33.5,33.5,0,0,0,3.832,5.5l-8.1,5.6c2.736.742,4.15,4.759,2.559,7.268,2.837-1.359,4.595-4.874,7.628-5.587,1.987-.467,4.01.408,5.895,1.231s3.957,1.62,5.909,1,3.391-3.342,2.151-5.078a94.379,94.379,0,0,1,25.65-4.315,3.023,3.023,0,0,1,1.943.4c1.131.845.833,2.669.772,4.15s1.011,3.426,2.24,2.759c-1.446,1.35-.21,3.891,1.177,5.311s3.059,3.378,2.21,5.225c-.222.482-.6.868-.811,1.354-.629,1.435.37,3.109,1.549,4.062s2.623,1.619,3.442,2.939.447,3.631-1.017,3.815l-4.162-5.69a11.981,11.981,0,0,0-2.811,5.737c4.413,3.885,5.077,11.792,1.382,16.466-1.888,2.389-4.573,3.84-6.917,5.7s-4.512,4.516-4.506,7.653c.01,5.419-.4,10.454,1.485,15.478a246.872,246.872,0,0,0,12.021,27.005c1.189,2.29,2.726,4.8,5.135,5.195q-4.567-11.972-8.223-24.316c1.587.007,3.422.142,4.352,1.527.771,1.147.6,2.706.844,4.1a13.227,13.227,0,0,0,1.5,3.8l14.54,27.887c1.205,2.312,2.588,4.793,4.892,5.729,1.473.6,3.177.486,4.532,1.348,1.063.675,1.778,1.875,2.861,2.511,3.063,1.8,7.322-1.651,10.184.5a29.913,29.913,0,0,1,2.093,2.293c2.644,2.465,6.98.816,10.032,2.655,1.967,1.185,2.986,3.555,4.035,5.7,2.628,5.38,6.88,10.651,12.511,11.08,1.769.135,3.576-.227,5.305.2s3.431,2.049,3.154,3.935c-.476,3.233,1.008,6.774.609,10.019-.726,5.912-8.513,8.509-9.182,14.429a36.031,36.031,0,0,1-.2,3.9c-.351,1.555-1.436,2.821-1.821,4.366-.73,2.929,1.218,5.843,3.359,7.814s4.694,3.669,5.865,6.427c1.237,2.915.629,6.315,1.032,9.49.878,6.933,6.44,12.073,12.163,15.387,1.744,1.01,3.616,1.987,4.745,3.739,1.473,2.286,1.326,5.3,1.818,8.032,1.2,6.69,6.435,12.2,6.584,19.016.106,4.842-2.394,9.235-3.888,13.8a34.382,34.382,0,0,0,2.441,26.7,43.733,43.733,0,0,1,3.243,6.148c1.41,3.929.953,8.4,2.253,12.369,1.719,5.253,6.443,9.591,5.991,15.139,2.145,4.8,6.88,7.151,11.642,8.578l8.534,2.558a10.237,10.237,0,0,0,5.005.629,3.936,3.936,0,0,0,3.209-3.668c-4.185-1.016-8.5-2.1-11.954-4.843s-5.813-7.636-4.5-12.035c.607-2.04,1.9-4.4.671-6.081-.7-.965-1.988-1.217-2.781-2.1-1.237-1.373-.812-3.68.077-5.337s2.174-3.136,2.533-5.01A5.386,5.386,0,0,0,260.5,577.7a12,12,0,0,0,4.224-2.918,4.694,4.694,0,0,0,.75-5.024c2.595.354,5.659.528,7.362-1.61,1.36-1.707,1.267-4.258.729-6.432s-1.446-4.284-1.474-6.533a102.737,102.737,0,0,0,17.938-.655,12.4,12.4,0,0,0-5.454-7.354c2.7-.491,5.152-3.967,6-6.765a18.7,18.7,0,0,0,.108-8.735,5.035,5.035,0,0,1-.081-2.288,4.3,4.3,0,0,1,2.133-2.221l13.383-8.276a7.861,7.861,0,0,0,2.14-1.7c1.4-1.773,1.194-4.45.476-6.647s-1.868-4.263-2.144-6.573c-.827-6.908,6.041-11.865,8.358-18.367a29.607,29.607,0,0,0,1.271-8.053c.189-2.929.2-6.331-1.885-8.218-2-1.809-5.13-1.406-7.225-3.089-1.921-1.543-2.583-4.539-4.681-5.785-1.905-1.132-4.295-.412-6.414-.944-3.731-.937-6.079-5.568-9.89-6-2.15-.242-4.584.89-6.346-.458-1.553-1.188-1.615-3.576-1.911-5.6a15.13,15.13,0,0,0-11.727-12.668c-2.217-.383-4.63-.237-6.516-1.549-1.91-1.328-2.785-3.815-4.285-5.655-2.418-2.965-6.225-4.018-9.792-4.921l-14.509-3.673c-2.576-.652-5.9-1-7.278,1.432a11.854,11.854,0,0,0-.861,2.915,8.5,8.5,0,0,1-7.885,6.391,9.457,9.457,0,0,0-5.5-4.581,32.244,32.244,0,0,1-4.449-1.14,6.612,6.612,0,0,1-3.223-4.038,7.19,7.19,0,0,1,.512-5.3,8.859,8.859,0,0,0-1.329-10.075c-2.467-2.385-6.036-2.961-9.345-2.723-.866-2.036.582-4.333,2.144-5.812s3.457-2.934,3.8-5.143c.535-3.475-3.583-6.115-6.71-5.078s-5.122,4.306-6.442,7.53a22.814,22.814,0,0,1-2.594,5.357c-1.194,1.56-3.117,2.676-4.935,2.176-2.575-.708-3.569-4-4.139-6.8a47.406,47.406,0,0,1-1.373-11.386c.16-3.835,1.361-7.773,3.987-10.369,4.28-4.231,10.845-3.816,16.621-3.141a4.805,4.805,0,0,1,.433-6,6.015,6.015,0,0,1,5.746-1.52,7.835,7.835,0,0,1,4.451,2.866c1.641,2.155,2.108,5.064,3.349,7.51s4.03,4.532,6.314,3.22c1.972-1.133,2.285-4.078,1.794-6.426s-1.533-4.632-1.356-7.031c.339-4.578,4.747-7.334,8.637-9.22s8.343-4.422,8.96-8.966a8.731,8.731,0,0,1,.462-2.606,4.912,4.912,0,0,1,1.742-1.763c11.352-8.078,22.892-16.254,35.867-20.668.675-.23.754.026,1.442-.154.963-.6.325-2.257-.6-2.924s-2.157-1.18-2.391-2.35a7.908,7.908,0,0,1,.421-2.576c.3-2.138-2.075-4.113-3.92-3.258-1.042-1.486,1.02-3.213,2.688-3.707a68.235,68.235,0,0,1,15.333-2.7,2.593,2.593,0,0,1,1.745.32c.871.65.76,2.139.142,3.067a17.278,17.278,0,0,1-2.347,2.294,7.265,7.265,0,0,0-1.661,6.937c2.707,1.483,5.65,3.009,8.648,2.487s5.659-4.15,4.25-7.047c-1.312-2.7-5.254-3.306-5.932-6.263-.794-3.462,3.757-6.54,2.732-9.931-.449-1.485-1.824-2.359-2.878-3.431a9.836,9.836,0,0,1-1.892-10.324,10.421,10.421,0,0,1-9.568-3.224c-2.289-2.487-4.114-6.41-7.364-6.3-2.982.1-5.551,3.848-8.339,2.705-.686-.281-1.409-.853-2.074-.518a1.872,1.872,0,0,0-.774,1.383c-.709,3.648.51,7.8-1.336,10.957-2.009,3.43-6.657,3.906-9.093,7-1.322,1.679-1.835,3.942-3.05,5.712s-3.8,2.9-5.254,1.353a8.2,8.2,0,0,0-1.967-9.481,18.778,18.778,0,0,0-4.345-2.276,25.306,25.306,0,0,1-4.854-2.913,4.064,4.064,0,0,1-1.66-5.3,12.6,12.6,0,0,1,9.812-8.756c1.942-.285,4.2-.184,5.488-1.778.68-.843,1.037-2.118,2.024-2.46a2.794,2.794,0,0,1,1.869.248l7.249,2.747a4.767,4.767,0,0,0,2.582.46,1.854,1.854,0,0,0,1.514-1.981c-.232-1.3-2.084-1.918-1.915-3.226a2.191,2.191,0,0,1,.607-1.1,24.979,24.979,0,0,1,20.555-8.74c.915,1.618-.532,3.534-1.736,4.915s-2.172,3.849-.716,4.912a3.76,3.76,0,0,0,1.93.468,15.981,15.981,0,0,1,5.137,1.678q3.757,1.761,7.371,3.853a10.807,10.807,0,0,1,.186-5.111c.6-1.6,2.313-2.853,3.807-2.23,1.44.6,2.179,2.654,3.713,2.842,2.047.251,2.854-3,2-5.023s-2.548-3.708-2.689-5.921c-.1-1.493.432-3.344-.675-4.248a2.878,2.878,0,0,0-1.307-.493l-27.654-5.479c-1.642-.325-4.015-.076-4.088,1.72-.041,1,.791,1.994.423,2.916-.393.984-1.685.894-2.626,1.242-1.46.54-2.192,2.406-2.052,4.061a11.8,11.8,0,0,0,1.732,4.577C255.283,257.421,252.56,257.272,250.761,256.462Z" transform="translate(-11.697 -21.616)"/><path class="a" d="M285.925,228.824a9.484,9.484,0,0,0-9.837,2.689c-.455.547-.838,1.3-.457,1.894.547.849,1.939.514,2.966.21a8.142,8.142,0,0,1,4.684-.1c.964.3,1.827.836,2.795,1.127a3.032,3.032,0,0,0,2.87-.383,3.194,3.194,0,0,0,.707-2.447,1.857,1.857,0,0,0-.549-1.617,3.017,3.017,0,0,0-1.27-.343,4.48,4.48,0,0,1-2.561-1.366" transform="translate(-54.2 -18.213)"/><path class="a" d="M303.344,225.125a2.358,2.358,0,0,0-2,.9,1.926,1.926,0,0,0-.2,2.029,10.088,10.088,0,0,0,3.681.219,3.053,3.053,0,0,0,2.573-2.153,6.4,6.4,0,0,1-4.194-.731" transform="translate(-59.909 -17.049)"/><path class="a" d="M347.718,217.063a45.18,45.18,0,0,0-9.44,2.927,6.47,6.47,0,0,1,4.53,6.5,3.1,3.1,0,0,0,.043,1.608c.347.767,1.351,1.055,2.235,1.252a16.059,16.059,0,0,0,4.9.571,5.074,5.074,0,0,0,4.057-2.263,15.391,15.391,0,0,1,.844-1.82c2.117-2.943,8.406.615,10.68-2.229.8-1,.727-2.51,1.771-3.3a4.213,4.213,0,0,1,1.821-.634,139.392,139.392,0,0,1,13.831-1.8c2.2-.175,5.067-.9,5.086-2.911a41.609,41.609,0,0,0-24.439,3c-2.724,1.245-6.328,3.865-8.952,2.214-.983-.618-.934-2.283-2.286-2.978C351.016,216.489,349.186,216.778,347.718,217.063Z" transform="translate(-66.831 -13.218)"/><path class="a" d="M389.351,221.48l3.89.682a5.3,5.3,0,0,0-3.859,1.41A4.368,4.368,0,0,0,388,227.148c3.642,1.111,7.614.03,11.451.177s8.3,2.649,7.646,6.1c-.2,1.044-.859,2.088-.515,3.1.241.71.927,1.213,1.314,1.867.806,1.362.162,3.084-.856,4.322s-2.387,2.226-3.281,3.541c-2.223,3.272-.96,7.5.364,11.157a9.536,9.536,0,0,0,2.072,3.777c1.962,1.9,5.159,2.07,8.023,2.108,2.084.028,4.471-.066,5.789-1.54,1.721-1.924.517-4.926,1.65-7.184,1.029-2.051,3.65-2.931,6.025-3.555a96.379,96.379,0,0,0,12.9-3.842c5.108-2.144,9.881-5.486,15.495-5.762a23.263,23.263,0,0,0,4.706-.3c1.517-.394,2.958-1.591,2.843-3.027-.1-1.227-1.235-2.128-2.124-3.052s-1.586-2.347-.77-3.325L475.44,229.2c-1.043-2.594-1.856-6.011.541-7.7.865-.609,2.023-.853,2.759-1.589,1.255-1.255.624-3.418-.825-4.486a10.1,10.1,0,0,0-5.263-1.456,154.678,154.678,0,0,0-19.405.158l-37.91,1.9c-2.544.127-5.481-.067-7.814.725-1.975.671-3.38,1.9-5.639,2.334C397.714,219.884,393.125,219.344,389.351,221.48Z" transform="translate(-75.854 -13.011)"/><path class="a" d="M487.747,267.767a1.684,1.684,0,0,0-1.132.234,1.25,1.25,0,0,0-.369.8,4.89,4.89,0,0,0,.837,3.766,4.188,4.188,0,0,0,3.7,1.619c1.751-.2,3.042-1.568,4.652-2.233,2.482-1.025,13.021-2.622,5.73-6.217-2.512-1.239-4.136-.145-6.116.671A15.051,15.051,0,0,1,487.747,267.767Z" transform="translate(-99.82 -31.236)"/><path class="a" d="M577.731,221.343a4.073,4.073,0,0,0-2.025,1.609,1.549,1.549,0,0,0,.667,2.154,2.887,2.887,0,0,0,.993.144l3.461.094c1.471.04,3.307.326,3.7,1.619.293.96-.363,2.194.429,2.881a2.358,2.358,0,0,0,1.177.419,8.771,8.771,0,0,0,3.488.1c2.519-.617,1.2-2.02,1.988-3.269,1.214-1.911,1-.754,3.142-1.85,1.579-.809,3.62-2.277,2.3-4.339C594.764,217.323,581.114,219.8,577.731,221.343Z" transform="translate(-118.96 -14.903)"/><path class="a" d="M668.819,219.611l-2.01.245a87.894,87.894,0,0,0-13.456,2.351,24.173,24.173,0,0,0,5.893,1.32,19.729,19.729,0,0,1,3.3.428c1.928.524,3.871,1.877,5.734,1.184,1.155-.43,1.532-1.527,2.489-2.109.661-.4,3.166-1.052,3.446-1.457C676.481,218.294,670.56,219.4,668.819,219.611Z" transform="translate(-135.843 -14.973)"/><path class="a" d="M683.864,231.78a37.732,37.732,0,0,0-7.417,4.958c-.944.81-1.909,1.818-1.823,3,.114,1.569,1.945,2.479,3.531,3.092l6.425,2.483c.78-1,.066-2.387-.74-3.372s-1.763-2.126-1.407-3.311c.406-1.353,2.214-1.814,3.73-2.047,2.47-.38,9.133-.349,8.332-3.982C693.552,228.316,686.344,230.515,683.864,231.78Z" transform="translate(-140.536 -18.804)"/><path class="a" d="M685.679,594.391a5.168,5.168,0,0,0,.388,4.932,5.771,5.771,0,0,0,5.619,1.772,10.268,10.268,0,0,0,5.217-3.062,16.336,16.336,0,0,0,3-4.2,30.575,30.575,0,0,0,2.224-7.428l1.995-9.56c.446-2.137.429-8.687-3.874-6.553-1.175.583-3.9,5.187-5.129,6.492-2.22,2.353-2.514,4.636-3.682,7.486C689.974,587.839,687.032,590.815,685.679,594.391Z" transform="translate(-142.893 -95.742)"/><path class="a" d="M1004.493,682.623a32.76,32.76,0,0,1-4.089-1.777,29.027,29.027,0,0,0-2.073,10.31l9.634-4.976c1.449-.749,3.092-1.789,3.061-3.308a1.022,1.022,0,0,0-.533-.952,1.414,1.414,0,0,0-.675-.072,17.441,17.441,0,0,0-4.079,1.2,5.413,5.413,0,0,1-4.16.02" transform="translate(-203.636 -119.927)"/><path class="a" d="M1072.42,686.486a22.186,22.186,0,0,0-3.089,1.012c-2.211,1.027-3.715,2.977-5.7,4.329a23.71,23.71,0,0,1-6.445,2.7,1.336,1.336,0,0,0,.361,2.078,4.821,4.821,0,0,0,2.544.522c2.337.047,4.8.068,6.847-.963a21.4,21.4,0,0,0,3.224-2.335,35.143,35.143,0,0,1,8.114-4.188,9.53,9.53,0,0,0,2.828-1.543c1.788-1.608,1.914-4.088-.664-4.635C1078.349,683.015,1074.4,685.9,1072.42,686.486Z" transform="translate(-220.739 -120.836)"/><path class="a" d="M1107.079,664.145a6.992,6.992,0,0,0-2.459-6.01c-.026,2.214-.1,4.572-1.464,6.4-.972,1.3-2.5,2.185-3.56,3.428s-1.537,3.211-.288,4.3a4.975,4.975,0,0,0,2.774.872c2.486.267,5.364.416,7.107-1.223.952-.895,1.415-2.22,2.576-2.878a3.143,3.143,0,0,0,1.13-.738c.479-.7-.282-1.612-1.139-1.862s-1.8-.133-2.663-.371-1.652-1.122-1.21-1.838" transform="translate(-232.948 -111.883)"/><path class="a" d="M1038.086,537.582a12.217,12.217,0,0,1-3.988.215c-2.214-.371-3.936-1.894-5.723-3.143a26.815,26.815,0,0,0-14.749-4.7c-4.855-.084-9.756,1.117-14.525.279.312,1.582,1.794,2.768,3.377,3.473s3.328,1.06,4.918,1.751a11.225,11.225,0,0,1,5.688,5.4,14.643,14.643,0,0,0,1.61,3.231c1.585,1.947,4.59,2.374,7.242,2.215,3.458-.208,7.069-1.115,10.285.061,2.461.9,4.222,2.865,6.277,4.394s4.949,2.663,7.308,1.56a11.162,11.162,0,0,1-8.359-10.61c2.314.194,8.979.119,8.62-3.47C1045.763,535.194,1040.074,537.254,1038.086,537.582Z" transform="translate(-203.86 -87.501)"/><path class="a" d="M982.855,574.379c.411-2.057,2.658-3.873,1.958-5.864-.484-1.377-2.233-2.056-3.817-2.09s-3.139.4-4.723.437a25.207,25.207,0,0,0-3.092.04c-3.143.471-5.081,3.479-8.043,4.548-1.8.65-3.825.526-5.7.975-4.252,1.02-6.943,4.688-9.915,7.645a36.253,36.253,0,0,1-17.96,9.56c-2.418.511-5.017.838-6.939,2.271-2.545,1.9-3.171,5.152-3.737,8.106a124.8,124.8,0,0,1-7.141,23.927l10.1,1.177a15.009,15.009,0,0,0,5.759-.076,17.3,17.3,0,0,0,3.788-1.841,40.179,40.179,0,0,1,14.773-4.867,17.117,17.117,0,0,1,7.9.505c2.481.9,4.61,2.931,4.818,5.36a6.628,6.628,0,0,1,6.2,1.376,9.547,9.547,0,0,1,2.96,5.393c.266,1.261.532,2.771,1.814,3.3,1.046.431,2.245-.033,3.389-.117,3.882-.284,7.1,3.848,10.919,3.136,4.092-.763,5.1-6.357,9.089-7.477,2.293-.643,5.509.139,6.607-1.808.968-1.716-.963-3.7-.764-5.617.245-2.366,3.3-3.37,5.659-4.379,8.126-3.48,11.981-13.462,8.044-20.823-2.333-4.362-6.923-7.8-7.771-12.587-.652-3.687.94-7.986-1.635-10.888-1.31-1.476-3.528-2.291-4.308-4.052-.491-1.109-.293-2.367-.557-3.538s-1.384-2.4-2.651-2.093c-3.678.881-4.852,11.253-6.822,13.773C988.056,581.621,981.907,579.1,982.855,574.379Z" transform="translate(-178.898 -78.53)"/><path class="a" d="M913.161,547.613a6.455,6.455,0,0,0-3.834-.179c-1.2.46-1.908,2.074-.941,2.875,7.563-.269,15.171-.536,22.67.4,8.639,1.08,17.189,3.755,25.866,2.968a142.376,142.376,0,0,0-15.089-3.2L933.338,549q-3.418-.653-6.9-.973C921.594,547.664,917.926,548.833,913.161,547.613Z" transform="translate(-177.197 -93.48)"/><path class="a" d="M923.029,506.049c-.628-.048-1.405-.089-1.73.4-.31.471.045,1.093-.122,1.621-.228.721-1.263.905-2.078.807a4.344,4.344,0,0,0-2.419.025,1.788,1.788,0,0,0-.793,2.126,5.43,5.43,0,0,0,1.4,2.034,21.877,21.877,0,0,0,3.628,3.321c2.6,1.751,6.12,2.6,7.758,5.137a3.452,3.452,0,0,0,1.036,1.273,3.118,3.118,0,0,0,2.657-.244l2.966-1.237a3.4,3.4,0,0,0,1.386-.861c.678-.839.261-2.032-.307-2.936s-1.3-1.84-1.175-2.876c.218-1.848,2.821-2.555,3.891-4.136s.377-3.647.5-5.518c.146-2.187,1.651-5.032-.771-6.666-2.059-1.389-4.027-.106-5.505,1.428C930.233,502.984,928.76,506.486,923.029,506.049Z" transform="translate(-179.494 -79.648)"/><path class="a" d="M951.242,456.516c1.013,1.77,3.124,2.826,4.228,4.549,1.2,1.868,1.061,4.282,2.359,6.092,1.332,1.858,4.013,2.844,4.76,4.957.816,2.307-1.035,5.11.44,7.126a3.367,3.367,0,0,0,2.307,1.166,3.48,3.48,0,0,0,2.5-.762,3.022,3.022,0,0,0-.146-4.491c-.873-.727-2.128-1.041-2.857-1.89a3.785,3.785,0,0,1-.74-1.644,9.859,9.859,0,0,1,.186-5.159,2.109,2.109,0,0,0,.142-1.35c-.328-.871-1.62-.933-2.527-1.337-2.06-.918-2.01-3.571-1.65-5.637-.24,1.376-5.608-.964-6.17-1.743-1.117-1.548-.509-4.534-.73-6.244A4.648,4.648,0,0,0,951.242,456.516Z" transform="translate(-189.703 -68.031)"/><path class="a" d="M873.014,501.271c-.991-1.012-2.483-2.072-3.812-1.461a2.1,2.1,0,0,0-.9,2.716,6.149,6.149,0,0,0,2.161,2.352c2.768,2.084,5.749,3.965,8.164,6.387,4.322,4.335,6.612,10.184,11.312,14.178a6.542,6.542,0,0,0,3.562,1.759c1.369.116,2.907-.684,3.064-1.931.13-1.027-.655-1.947-1.422-2.708-1.826-1.813-3.825-3.481-5.549-5.375a4.37,4.37,0,0,1-1.418-2.7,1.855,1.855,0,0,1,2.093-1.835c-1.317-.307-2.293-2.309-4.225-2.686-1.615-.315-2.006.6-3.927-.154C878.457,508.375,875.581,503.894,873.014,501.271Z" transform="translate(-181.732 -79.844)"/><path class="a" d="M988.739,348.879a32.32,32.32,0,0,1-3.1-1.01c-2.722-.746-6.323,1.08-5.96,3.653.241,1.709,1.984,2.861,2.946,4.344,1.427,2.2,1.047,4.987.3,7.449a5.586,5.586,0,0,1-1.03,2.119,7.887,7.887,0,0,1-2.44,1.6,32.042,32.042,0,0,0-9.545,7.4,2.08,2.08,0,0,0-.576.992c-.13.868.827,1.5,1.367,2.226,1.2,1.609.333,3.774.452,5.719a1.57,1.57,0,0,0,.746,1.419,1.7,1.7,0,0,0,1.974-.883c1.3-2.154.321-5.61,2.764-6.649.462-.2,1.022-.279,1.331-.65.489-.588.017-1.458.265-2.161.372-1.055,1.953-1.1,3.166-1.055a19.579,19.579,0,0,0,6.173-.75,4.213,4.213,0,0,0,2.043-1.08,3.758,3.758,0,0,0,.52-3.072,39.182,39.182,0,0,0-5.391-15.014c2.146.25,4.481.467,6.333-.554,1.037-.572,2.281-2.281,1.766-3.445C992.033,347.638,990.562,349.186,988.739,348.879Z" transform="translate(-195.152 -43.82)"/><path class="a" d="M571.463,386.873a6.908,6.908,0,0,1,.058,3.792,2.866,2.866,0,0,1-3.212,1.851c-1.041-.288-1.642-1.243-2.381-1.971-4.11-4.049-13.381-1.7-15.92-6.715-1.036-2.045-.332-4.494-1.039-6.652a6.5,6.5,0,0,0-6.57-4.074,14.476,14.476,0,0,0-3.781,1.03,102.834,102.834,0,0,1-25.048,5.718,22.355,22.355,0,0,0-4.813.8c-3.529,1.168-5.94,4.154-7.656,7.2s-2.983,6.346-5.284,9.054c-2.418,2.845-5.806,4.838-8.967,6.993a8.737,8.737,0,0,0-2.958,2.83,8.142,8.142,0,0,0-.593,4.2l.646,17.336c.083,2.23.187,4.539,1.281,6.535,1.365,2.492,4.063,4.124,5.934,6.325a11.685,11.685,0,0,1,2.816,7.911c-.04,1.148-.165,2.505.814,3.226a3.837,3.837,0,0,0,2,.526l25.692,1.919c4.519.338,9.528.893,12.479,4.035,1.393,1.483,2.511,3.616,4.644,3.775a18.814,18.814,0,0,0,2.72-.341c2.309-.167,4.337,1.432,5.617,3.194a13.227,13.227,0,0,1,2.494,9.093c-.21,2.01-.892,3.963-1.04,5.977-.56,7.664,6.558,14.323,6.7,22,.081,4.518-2.268,8.738-4.559,12.744,3.7,5.112.67,11.919,2.142,17.9,1.4,5.67,6.576,10.108,7.867,15.8.591,2.605.625,5.811,3.142,7.153a7.753,7.753,0,0,0,3.555.65,50.612,50.612,0,0,0,21.343-4.435c3.112-1.41,6.338-3.514,6.881-6.646.438-2.526-.965-5.351.463-7.551,1.683-2.593,6-2.388,8.472-4.381,4.018-3.234.885-9.4,2.513-14.061,1.463-4.187,6.5-6.412,9-10.17A17.1,17.1,0,0,0,619,504.273a67.8,67.8,0,0,0,2.127-13.191,72.309,72.309,0,0,1,.654-8.08c2.692-15.265,19.226-25.487,24.594-40.152.513-1.4.753-3.266-.612-4.058a4.251,4.251,0,0,0-2.6-.248l-11.843,1.363a8.9,8.9,0,0,1-4.381-.23c-1.351-.558-2.319-2.118-1.6-3.3,2.012-3.326-2.126-7.528-3.965-10.936a159.681,159.681,0,0,0-17.607-26.062,2.555,2.555,0,0,1-.772-1.53l3.361.1c-1.135-3.716-3.007-7.783-6.963-9.142-2.229-.766-4.7-.5-7.075-.383C585.507,388.763,578.2,387.824,571.463,386.873Z" transform="translate(-91.407 -31.291)"/><path class="a" d="M601.344,250.949c1.782,1.728,3.78,3.559,6.359,3.861,4.555.532,7.83-3.767,9.916-7.5a3.9,3.9,0,0,0,4.191,3.391,8.752,8.752,0,0,0,3.152-1.125,66.818,66.818,0,0,1,29.419-6.941,2.929,2.929,0,0,1,2.426-3.188c2.091-.378,3.975,1.272,4.983,2.986s1.638,3.7,3.24,4.984,4.706,1.227,5.339-.631c.608-1.784-1.428-3.3-3.12-4.357s-3.474-3-2.335-4.55c8.641-1.746,17.336-3.5,26.179-3.845a11.9,11.9,0,0,0,4.407-.693c1.348-.6,2.42-1.975,2.058-3.306a10.474,10.474,0,0,1-10.414-3.585c12.27-.924,25.319-1.712,36.193,3.558,1.3,2.557-5.346,4.684-3.566,6.99a3.409,3.409,0,0,0,2.69.838c7.556.128,15.156.254,22.627-.788a33.116,33.116,0,0,1,8.229-.609c4.566.514,8.47,3.294,12.962,4.2a7.521,7.521,0,0,0,5.419-.589c1.541-.971,2.2-3.18.941-4.442,4.229-3.783,11.248-2.845,16.827-1.034s10.865,4.732,16.77,5.136c4.234.29,8.528-.75,12.712-.089,2.629.415,5.076,1.483,7.646,2.139,4.86,1.241,10,.979,15.048,1.038a114.275,114.275,0,0,1,37.575,6.815,11.442,11.442,0,0,1,4.177,2.253,3.506,3.506,0,0,1,.933,4.1l-12.363-1.649c1.165,2.093,4.178,2.45,6.625,3.172s4.985,3.189,3.514,5.114c-2.652-.771-5.054,1.649-6.394,3.875s-2.972,4.893-5.75,5.028c-2.488.121-5.5-1.812-7.12-.086a43.929,43.929,0,0,1,5.721,8.348c1.6,3.047,2.744,6.886.578,9.628a2.713,2.713,0,0,1-1.462,1.035c-1.769.409-2.918-1.566-4.187-2.763-1.6-1.508-4.016-1.936-6.18-2.643s-4.445-2.1-4.614-4.192c-.105-1.3.648-2.513,1.2-3.716a13.209,13.209,0,0,0,1.192-6.421,6.952,6.952,0,0,0-2.054-4.838,4.411,4.411,0,0,0-5.282-.5c-.7.527-1.254,1.371-2.158,1.4-1.6.056-2.824-2.486-4.109-1.619a3.7,3.7,0,0,1-.593,2.666c-3.835,3.045-9.727,1.757-14.672,2.832a28.957,28.957,0,0,0-6.694,2.668,4.235,4.235,0,0,0-1.913,1.466A2.58,2.58,0,0,0,818.765,278a9.735,9.735,0,0,0,3.8,1.183c6.028,1.042,12.144,2.655,16.9,6.189s7.88,9.376,6.374,14.8L833.95,289.81q.677,6.53.769,13.1a5.414,5.414,0,0,1-.377,2.519c-.847,1.708-3.144,2.283-5.157,2.66a4.055,4.055,0,0,0-2.711,1.727,3.408,3.408,0,0,0-.39,3c.715,2.127,2.5,3.786,4.131,5.439s3.239,3.531,3.453,5.748-1.619,4.715-4.051,4.561c-1.844-.117-3.212-1.623-4-3.15s-1.254-3.227-2.436-4.524c-3.577-3.926-11.61-2.244-14.814-6.43a6.187,6.187,0,0,0-1.5,6.294c1.491-.852,3.531-.06,4.651,1.177s1.648,2.824,2.528,4.214c1.187,1.876,3.076,3.538,3.241,5.7a17.007,17.007,0,0,0,.045,2.451c.294,1.309,1.507,2.249,2.347,3.343,1.956,2.546,1.859,6.044.6,8.933s-3.525,5.3-5.769,7.643a97,97,0,0,1-12.562,11.547,12.673,12.673,0,0,0-3.566,3.275,3.315,3.315,0,0,0,.4,4.285c-.908.041-2.536.449-3.443.49a66.7,66.7,0,0,1-.208-10c-3.582-1.57-7.439,2.634-6.977,6.237s3.317,6.493,5.349,9.609c1.486,2.279,2.591,4.936,2.095,7.55A5.926,5.926,0,0,1,789.655,392c-4.6-.367-6.53-6.4-11.09-7.09a2.027,2.027,0,0,0-1.2.109c-.677.339-.794,1.166-.832,1.87-.187,3.454-.348,7.046,1.129,10.231,2.161,4.659,7.745,8.573,6.574,13.518-6.31-2.677-9.59-9.135-11.08-15.339s-1.738-12.716-4.408-18.581c-2.027,2.372-6.289.411-8.141-2.077-1.756-2.359-2.838-5.088-4.541-7.479s-4.314-4.532-7.436-4.663c-3.273-.138-6.111,1.912-8.607,3.849-2.052,1.593-4.16,3.248-5.36,5.45-1.746,3.2-1.289,6.981-1.373,10.558-.091,3.867-.989,7.948-3.877,10.779s-8.218,3.817-11.4,1.266a11.494,11.494,0,0,1-3.185-5.233,239.006,239.006,0,0,1-8.624-28.1c-.535,2.17-2.623,4.967-4.618,3.689a3.843,3.843,0,0,1-1.064-1.251c-3.72-5.755-10.61-9.208-17.572-11.278s-14.286-3.035-21.17-5.31a55.83,55.83,0,0,1-10.982-4.993,6.984,6.984,0,0,0,7.413,11.1c1.529-.446,2.82-1.414,4.336-1.893s3.552-.243,4.216,1.09c.635,1.277-.325,2.821.151,4.154.725,2.03,4.08,2.187,5.253,4.034.873,1.375.155,3.2-1.092,4.309a20.163,20.163,0,0,1-4.43,2.49c-4.936,2.505-8.446,6.782-12.76,10.109s-10.4,5.757-15.541,3.622c1.225-5.664-6.166-9.822-7.526-15.46-.448-1.856-.216-3.827-.855-5.635-.925-2.618-3.47-4.419-5.558-6.4a23.929,23.929,0,0,1-7.552-18.283c.113-2.33.582-4.7,0-6.969s-2.642-4.469-5.195-4.367c-5.831.235-13.177.631-16.236-3.906-1.092-1.619-1.567-3.991.012-5.231,1.114-.875,2.757-.793,4.22-.661l13.138,1.18c3.073.276,6.394.5,9.031-.963s3.779-5.358,1.338-7.083c-1.784-1.26-4.98-1.192-5.5-3.2-.432-1.669,1.592-3.563.5-4.957-.784-1-2.546-.723-3.614.027s-1.843,1.846-3.038,2.414c-2.1,1-4.6.048-6.857-.6s-5.279-.7-6.373,1.213c-1.224,2.138,1.085,4.94-.129,7.083-1.605,2.833-7.042,1.22-9.3,3.657-2.587,2.8,1.76,6.966.888,10.538a7.783,7.783,0,0,1-7.081-.363,6.086,6.086,0,0,1-2.972-5.845c.216-1.607,1.134-3.247.519-4.766-.5-1.228-1.848-1.959-3.1-2.592l-12.767-6.439c-1.185,2.007.313,4.5,2.187,6s4.222,2.643,5.453,4.627a5.8,5.8,0,0,1-2.5,8.006,1.658,1.658,0,0,1-1.266.2,1.633,1.633,0,0,1-.821-1.007c-2.253-5.262-5.635-10.449-11.042-13.2s-13.177-2.183-16.722,2.447c-.842,1.1-1.407,2.353-2.141,3.516-3.9,6.177-12.254,9.1-20.061,8.911a4.3,4.3,0,0,1-2.189-.469c-1.262-.8-1.2-2.483-1.012-3.872l.82-5.892a4.477,4.477,0,0,1,1.429-3.23c1.446-1.041,3.533-.384,5.375-.408a6.74,6.74,0,0,0,6.182-4.355,6.612,6.612,0,0,0-2.137-6.968c-.844-.724-1.977-1.633-1.531-2.608a2.38,2.38,0,0,1,1.657-1.018c3.308-.877,6.8-1.107,10.058-2.141s6.409-3.152,7.179-6.217c.236-.939.344-2.077,1.268-2.543a4.118,4.118,0,0,1,1.465-.273,6.694,6.694,0,0,0,6.116-6.785c1.559-.994,3.744-.263,5.252.795s2.84,2.455,4.675,2.911c3.42.85,6.726-1.914,10.271-1.927,1.491-.005,3.034.476,4.436.014,1.422-.468,2.271-1.759,3.362-2.714s3.006-1.536,4.013-.508l-.858-5.8a13.483,13.483,0,0,0,10.168-1.678l-11.089-3.42a2.492,2.492,0,0,1-1.037-.506c-.806-.792-.005-2.027.65-2.928,1.568-2.155,1.831-5.7-.747-6.777-1.76-.732-3.781.147-5.47,1.007l-8.094,4.119c-.257,1.4,1.624,2.2,2.79,3.146a4.024,4.024,0,0,1,1.275,4.684,4.676,4.676,0,0,1-4.325,2.776,4.961,4.961,0,0,1,1.041,4.51l-5.445.357a2.546,2.546,0,0,1-1.766-.315c-.582-.472-.5-1.3-.638-2-.326-1.69-2.139-2.874-3.989-3.178a15.314,15.314,0,0,0-5.576.47,3.625,3.625,0,0,1-2.4-.05,2.231,2.231,0,0,1-.948-1.092c-.8-1.778-.052-3.867,1.238-5.388a31.854,31.854,0,0,1,4.642-3.9,24.589,24.589,0,0,0,8.046-11.39c3-1.146,6.1-2.7,9.1-3.85a30.138,30.138,0,0,1,14.966-2.647l10.152.177c3.006.052,6.093.12,8.872,1.165s5.221,3.308,5.413,6.046a1.766,1.766,0,0,1-.651,1.7,2.588,2.588,0,0,1-1.283.264C605.342,250.222,604.147,250.86,601.344,250.949Z" transform="translate(-62.023 -17.281)"/><path class="a" d="M519.534,308.041a2.557,2.557,0,0,0,.81-2.727,5.964,5.964,0,0,0-5.754.992,8.984,8.984,0,0,0-1.541,1.86c-1.334,1.986-2.514,4.359-1.741,6.58a1.891,1.891,0,0,0,.937,1.17,2.679,2.679,0,0,0,1.092.156,40.077,40.077,0,0,0,4.4-.247c.9-.1,1.936-.331,2.283-1.092.455-1-.647-2.132-.325-3.174a3.484,3.484,0,0,1,.938-1.226,1.545,1.545,0,0,0,.553-1.361c-.13-.489-.95-.767-1.245-.342" transform="translate(-105.553 -34.89)"/><path class="a" d="M531.521,295.6a13.449,13.449,0,0,0-3.984-.228,1.875,1.875,0,0,0-.849.176,1.3,1.3,0,0,0-.523.691,3.36,3.36,0,0,0,2.191,4.21,4.978,4.978,0,0,1,1.359.5c1.127.8.408,2.429.622,3.716.24,1.445,1.772,2.658,1.491,4.1-.221,1.134-1.548,2.031-1.334,3.166.224,1.189,1.876,1.546,3.194,1.641a4.372,4.372,0,0,0,2.263-.237,3.212,3.212,0,0,0,1.428-1.887,11.115,11.115,0,0,0,.667-4.554,4.023,4.023,0,0,0-.563-2.01,11.6,11.6,0,0,0-1.315-1.374C533.644,300.829,536.3,296.832,531.521,295.6Z" transform="translate(-108.713 -32.367)"/><path class="b" d="M850.31,485.851S632.029,414.272,537.2,433.461c0,0-199.42,15.673-222.712,53.784,0,0-65.43-158.258-88.721-163.588" transform="translate(-54.389 -24.163)"/><path class="b" d="M312.944,488.311c36.933-78.888,369.66-166.3,369.66-166.3C635.357,331.6,537.2,432.876,537.2,432.876s-207.621-121-311.432-109.8c0,0,454-17.482,623.354,162.415" transform="translate(-54.389 -23.799)"/><circle class="c" cx="5" cy="5" r="5" transform="translate(166.914 293.339)"/><circle class="c" cx="5" cy="5" r="5" transform="translate(254.707 458.25)"/><circle class="c" cx="5" cy="5" r="5" transform="translate(621.095 293.082)"/><circle class="c" cx="5" cy="5" r="5" transform="translate(790.438 455.687)"/><ellipse class="c" cx="8.468" cy="7.729" rx="8.468" ry="7.729" transform="translate(475.524 404.86)"/></g></svg>