<!DOCTYPE svg PUBLIC "-//W3C//DTD SVG 1.1//EN" "http://www.w3.org/Graphics/SVG/1.1/DTD/svg11.dtd">
<!-- Uploaded to: SVG Repo, www.svgrepo.com, Transformed by: SVG Repo Mixer Tools -->
<svg width="64px" height="64px" viewBox="-204.8 -204.8 921.60 921.60" version="1.1" xmlns="http://www.w3.org/2000/svg" xmlns:xlink="http://www.w3.org/1999/xlink" fill="#ffffff" transform="matrix(-1, 0, 0, 1, 0, 0)">
<g id="SVGRepo_bgCarrier" stroke-width="0">
<rect x="-204.8" y="-204.8" width="921.60" height="921.60" rx="460.8" fill="#d0cde1" strokewidth="0"/>
</g>
<g id="SVGRepo_tracerCarrier" stroke-linecap="round" stroke-linejoin="round"/>
<g id="SVGRepo_iconCarrier"> <title>notifications</title> <g id="Page-1" stroke="none" stroke-width="1" fill="none" fill-rule="evenodd"> <g id="drop" fill="#ffffff" transform="translate(64.000000, 64.000000)"> <path d="M85.3333333,85.3333333 L85.3333333,320 L186.515625,320 L341.333333,405.333333 L341.292969,320 L405.333333,320 L405.333333,85.3333333 L85.3333333,85.3333333 Z M362.666667,128 L362.666667,277.333333 L298.626302,277.333333 L298.626302,333.031249 L197.484375,277.333333 L128,277.333333 L128,128 L362.666667,128 Z M298.666667,-1.42108547e-14 L298.666667,42.6666667 L42.6666667,42.6666667 L42.6666667,213.333333 L-1.42108547e-14,213.333333 L-1.42108547e-14,-1.42108547e-14 L298.666667,-1.42108547e-14 Z" id="Shape"> </path> </g> </g> </g>
</svg>