<svg xmlns="http://www.w3.org/2000/svg" viewBox="0 0 25.575 24.666"><g transform="translate(-21.5 -22.5)"><path class="a" d="M34.287,22.5a5.683,5.683,0,1,0,5.683,5.683A5.705,5.705,0,0,0,34.287,22.5Zm0,2.842a2.842,2.842,0,1,1-2.842,2.842A2.82,2.82,0,0,1,34.287,25.342Zm0,11.879A22.658,22.658,0,0,0,26.4,38.777a11.857,11.857,0,0,0-3.244,1.809A4.009,4.009,0,0,0,21.5,43.614v3.552H47.075V43.614a4.009,4.009,0,0,0-1.657-3.028,11.857,11.857,0,0,0-3.244-1.809,22.658,22.658,0,0,0-7.887-1.557Zm0,2.842a20.591,20.591,0,0,1,6.846,1.357A9.543,9.543,0,0,1,43.6,42.771c.537.447.633.751.633.844v.71H24.342v-.71c0-.093.1-.4.633-.844a9.543,9.543,0,0,1,2.467-1.351,20.59,20.59,0,0,1,6.846-1.357Z" transform="translate(0)"/></g></svg>
