<svg xmlns="http://www.w3.org/2000/svg" viewBox="0 0 197.587 197.587"><path class="a" fill="none" d="M0,197.586V0H197.586V197.586Z"/><path d="M0,0V68.4H68.4V0ZM83.594,0V15.2h15.2V0Zm15.2,15.2V30.4h-15.2V60.8h15.2V45.6h15.2V15.2Zm0,45.6v22.8H30.4v15.2H15.2v15.2H45.6v-15.2H60.8v15.2h38v-15.2h15.2v15.2h22.8v-15.2h15.2v-15.2h-38V60.8Zm53.2,38v15.2h45.6v-15.2h-15.2v-15.2h-15.2v15.2Zm-136.791,0v-15.2H0v15.2ZM129.191,0V68.4h68.4V0ZM15.2,15.2h38v38h-38Zm129.19,0h38v38h-38ZM22.8,22.8V45.6H45.6V22.8Zm129.191,0V45.6h22.8V22.8Zm-68.4,98.793v15.2h15.2v-15.2Zm15.2,15.2v15.2h-15.2v30.4h15.2v-15.2h30.4v-15.2h15.2v-15.2h15.2v15.2h-15.2v15.2h-15.2v30.4h15.2v-15.2h15.2v-15.2h7.6v15.2h-7.6v15.2h15.2v-15.2h7.6v-15.2h15.2v-30.4h-15.2v-15.2h-53.2v15.2Zm83.594,45.6v15.2h15.2v-15.2Zm-83.594,0v15.2h15.2v-15.2ZM0,129.191v68.4H68.4v-68.4Zm15.2,15.2h38v38h-38Zm7.6,7.6v22.8H45.6v-22.8Z"/></svg>
