<svg xmlns="http://www.w3.org/2000/svg" viewBox="0 0 20.867 18.784"><g transform="translate(-14.355 -21.505)"><path opacity="0.38" d="M21.5,35.972l18.784-7.305-3.131,16.7-5.218-3.131L28.675,43.8l-1.957-4.7Z" transform="translate(-6.105 -6.119)"/><path d="M34.649,21.9a1.956,1.956,0,0,0-2.019-.214c-.47.185-7.828,3.281-14.687,6.169l-2.266.954a1.776,1.776,0,0,0,.011,3.436l3.827,1.531c.331.992,1.1,3.3,1.292,3.909.115.363.4,1.278,1.137,1.492a1.443,1.443,0,0,0,.466.077,1.572,1.572,0,0,0,.958-.34l2.43-2.056,2.954,2.731a2.293,2.293,0,0,0,1.524.7,2.063,2.063,0,0,0,1.935-1.653c.087-.446,2.935-14.745,2.935-14.743a1.9,1.9,0,0,0-.5-2ZM30.178,38.061l-4.317-3.993L22.7,36.745c-.375-1.155-1.358-4.093-1.358-4.093l-.152-.458-4.2-1.678,1.761-.74c4.486-1.889,12.477-5.252,14.289-6.006-.393,1.972-2.538,12.739-2.864,14.291Z"/><path d="M59.775,57.333a.959.959,0,0,0-.4.183c-1.344.838-8.084,4.673-9.932,5.723l.888.356s1.2,3.6,1.451,4.383.45.808.45.808a.4.4,0,0,0,.16.033.357.357,0,0,0,.1-.024l1.228-4.809s5.6-5.665,5.934-5.994c.271-.264.328-.357.328-.449a.19.19,0,0,0-.209-.21Z" transform="translate(-29.979 -30.611)"/></g></svg>
