<svg xmlns="http://www.w3.org/2000/svg" viewBox="0 0 26.905 21.861"><g transform="translate(0 -14.333)"><path d="M26.905,16.913a10.185,10.185,0,0,1-3.14.9,5.966,5.966,0,0,0,2.465-3.03,10.229,10.229,0,0,1-3.473,1.349,5.869,5.869,0,0,0-4.147-1.8,5.5,5.5,0,0,0-5.5,5.491,4.147,4.147,0,0,0,.114,1.235A15.336,15.336,0,0,1,1.9,15.341a4.826,4.826,0,0,0-.784,2.8,5.622,5.622,0,0,0,2.465,4.6,7.973,7.973,0,0,1-2.465-.674v.114a5.441,5.441,0,0,0,4.37,5.382,5.757,5.757,0,0,1-1.454.223,3.074,3.074,0,0,1-1.012-.114,5.321,5.321,0,0,0,5.159,3.814,11.208,11.208,0,0,1-6.84,2.352A5.578,5.578,0,0,1,0,33.729a15.707,15.707,0,0,0,8.408,2.465c10.2,0,15.695-8.408,15.695-15.695v-.674a11.51,11.51,0,0,0,2.8-2.912"/></g></svg>
