<svg xmlns="http://www.w3.org/2000/svg" viewBox="0 0 20.03 20.03"><g transform="translate(-17.2 -17.2)"><path d="M27.215,17.2a10,10,0,0,0-8.587,15.148L17.29,37.23l4.986-1.309A10.013,10.013,0,1,0,27.215,17.2Zm-3.428,5.343c.163,0,.33,0,.474.007.179,0,.373.017.559.429.221.489.7,1.716.765,1.84a.447.447,0,0,1,.02.434,1.818,1.818,0,0,1-.245.416c-.124.144-.261.322-.373.43-.124.124-.253.261-.109.509a7.42,7.42,0,0,0,1.379,1.716,6.734,6.734,0,0,0,2,1.231c.249.124.393.1.536-.062s.62-.721.787-.97.329-.206.554-.124,1.448.683,1.7.807.412.186.474.287a2.047,2.047,0,0,1-.142,1.18,2.5,2.5,0,0,1-1.672,1.177c-.458.043-.886.206-2.978-.618a10.167,10.167,0,0,1-4.24-3.746,4.808,4.808,0,0,1-1.011-2.562,2.793,2.793,0,0,1,.866-2.07.912.912,0,0,1,.663-.31Z"/></g></svg>
